<svg xmlns="http://www.w3.org/2000/svg" width="1200" height="900" viewBox="0 0 1200 900">
  <defs>
    <linearGradient id="bg" x1="0" y1="0" x2="1" y2="1">
      <stop offset="0" stop-color="#FFFFFF"/>
      <stop offset="1" stop-color="#F4F6FF"/>
    </linearGradient>
    <linearGradient id="purple" x1="0" y1="0" x2="1" y2="0">
      <stop offset="0" stop-color="#3B1E6F"/>
      <stop offset="0.55" stop-color="#6A4CFF"/>
      <stop offset="1" stop-color="#B8A7FF"/>
    </linearGradient>
    <filter id="shadow" x="-20%" y="-20%" width="140%" height="140%">
      <feDropShadow dx="0" dy="18" stdDeviation="18" flood-color="#1F2430" flood-opacity="0.14"/>
    </filter>
    <style>
      .ol{stroke:#1F2430;stroke-width:6;stroke-linecap:round;stroke-linejoin:round}
      .ol2{stroke:#1F2430;stroke-width:4;stroke-linecap:round;stroke-linejoin:round}
    </style>
  </defs>

  <rect width="1200" height="900" fill="url(#bg)"/>
  <circle cx="980" cy="185" r="255" fill="#B8A7FF" opacity="0.14"/>
  <circle cx="210" cy="760" r="310" fill="#3B1E6F" opacity="0.08"/>

  <g filter="url(#shadow)">
    <rect x="120" y="120" width="960" height="660" rx="42" fill="#FFFFFF"/>
  </g>
  <rect x="120" y="120" width="960" height="660" rx="42" fill="none" stroke="#E3E6ED" stroke-width="4"/>

  <g transform="translate(190 220)">
    <ellipse cx="210" cy="520" rx="190" ry="34" fill="#1F2430" opacity="0.10"/>
    <rect x="110" y="110" width="200" height="220" rx="46" fill="#FFFFFF" class="ol" stroke-width="4"/>
    <rect x="140" y="140" width="140" height="16" rx="8" fill="#EDEFF7"/>
    <circle cx="160" cy="206" r="18" fill="url(#purple)"/>
    <circle cx="260" cy="206" r="18" fill="url(#purple)"/>
    <path d="M180 272 Q210 298 240 272" fill="none" class="ol" stroke-width="6"/>
    <path d="M104 220 Q70 250 106 278" fill="none" class="ol" stroke-width="8"/>
    <path d="M316 220 Q350 250 314 278" fill="none" class="ol" stroke-width="8"/>
    <path d="M198 92 v-34" fill="none" class="ol2"/>
    <circle cx="198" cy="54" r="10" fill="#6A4CFF" class="ol2"/>

    <g transform="translate(40 356)">
      <rect x="0" y="0" width="340" height="120" rx="30" fill="#FFFFFF" class="ol" stroke-width="4"/>
      <circle cx="60" cy="60" r="22" fill="#6A4CFF" opacity="0.22" class="ol2"/>
      <path d="M52 60 H 68" class="ol2"/>
      <path d="M60 52 V 68" class="ol2"/>
      <path d="M110 44 H 300" class="ol2" stroke="#E3E6ED"/>
      <path d="M110 70 H 250" class="ol2" stroke="#E3E6ED"/>
      <path d="M110 94 H 280" class="ol2" stroke="#E3E6ED"/>
    </g>
  </g>

  <g>
    <path d="M540 480 C 640 420, 700 360, 800 340" fill="none" stroke="url(#purple)" stroke-width="14" stroke-linecap="round" stroke-dasharray="2 26"/>
    <path d="M580 442 l38 -18 l-18 38 z" fill="#FFFFFF" class="ol2"/>
    <path d="M668 390 l38 -18 l-18 38 z" fill="#FFFFFF" class="ol2"/>
    <path d="M748 358 l38 -18 l-18 38 z" fill="#FFFFFF" class="ol2"/>
  </g>

  <g transform="translate(760 220)">
    <ellipse cx="160" cy="560" rx="150" ry="30" fill="#1F2430" opacity="0.10"/>
    <rect x="40" y="180" width="240" height="260" rx="36" fill="#FFFFFF" class="ol" stroke-width="4"/>
    <rect x="70" y="210" width="180" height="16" rx="8" fill="#EDEFF7"/>
    <circle cx="80" cy="280" r="12" fill="#6A4CFF"/>
    <path d="M104 280 H 230" class="ol2" stroke="#E3E6ED"/>
    <circle cx="80" cy="330" r="12" fill="#B8A7FF"/>
    <path d="M104 330 H 240" class="ol2" stroke="#E3E6ED"/>
    <circle cx="80" cy="380" r="12" fill="#3B1E6F"/>
    <path d="M104 380 H 210" class="ol2" stroke="#E3E6ED"/>

    <g transform="translate(-20 40)">
      <rect x="0" y="0" width="180" height="120" rx="26" fill="#FFFFFF" class="ol" stroke-width="4"/>
      <path d="M24 36 h132 v52 h-132 z" fill="none" class="ol2"/>
      <path d="M24 36 l66 38 l66-38" fill="none" class="ol2"/>
      <circle cx="148" cy="96" r="10" fill="url(#purple)"/>
    </g>
  </g>
</svg>
